<svg xmlns="http://www.w3.org/2000/svg" viewBox="6 10 4268 1620">
  <g stroke-width="10">
    <path d="M1256 1629c-14 2-35-3-46-4h-1c-10-3-16-10-22-10h-4v-4c-1-8-6-15-6-26-1-15 3-28 2-43-2-26-9-54-13-81-3-16-2-44-15-50-8-5-20-1-30 1l-71 7c-78 3-152-10-210-67-16-16-49-51-47-78 2-6 6-11 11-14l15-7h1c21-4 59-12 80 3 24 18 35 53 54 73 14 16 35 31 57 41s46 15 68 7c14-3 28-14 38-26 8-7 17-13 20-21h1v-1c2-2-1-10-2-16l-6-42-20-164c-4-45-4-89-10-131-3-17-11-33-13-52-7-72-5-144-12-216-8-81-6-166-30-244-5-14-11-29-21-38-25-21-74-19-107-27-13-3-27-7-38-14h-1l-7-6c-3-3-5-8-4-13 2-3 6-7 10-9l13-3c9-2 19-2 24-2 41-3 81 0 120 10 2-12-4-27-5-44l-9-98c0-11-5-29 0-42l7-7 9-2h14c18-3 38-6 57-4 8 0 19 2 25 9l-1-1 1 1c10 12 13 37 15 52 6 33 9 67 15 100v1c1 13 1 29 6 38 2 4 6 5 12 6l17 1 64-3c11-2 24-2 34 5h-1c5 3 8 8 9 13v14c-1 10-5 16-11 19s-13 4-19 5c-25 4-52 1-76 1l-17-1-9 1h-2 1l-1 1c-3 2 1 9 1 13l5 48 15 162c7 74 10 147 17 220 6 49 15 98 18 147 2 67 8 133 20 199 4 28 7 63 19 89 7 12 18 23 27 34l24 24 19 10c10 4 18 3 26-1 9-3 16-9 23-17 23-27 28-66 53-94 20-21 44-26 69-28l18 1 8 4c3 2 5 5 6 9 5 21-7 49-18 66-27 57-73 95-137 103-24 3-47 1-69 4-10 2-20 4-25 11-8 12-2 32 1 48 3 19 12 44 16 69s3 51-11 69l-1 1-37 11ZM3062 576l23-1c9 0 19 1 24 6 5 6 4 18 6 22v1l7 57c8 56 20 112 34 166l13 53c1 7 4 17 3 25v1c-4 8-15 14-25 16-9 3-20 3-26 4-10 1-41 8-54-1-14-16-20-53-24-72-16-58-30-118-40-178-3-20-14-58-3-79 5-10 18-14 30-16s24-2 31-4h1Zm-1324-4c7 0 27-2 35 2 4 2 7 7 8 11l2 11 13 47c19 71 39 143 53 214l10 52v1c0 5 1 16-4 24-8 8-24 12-34 13-16 2-57 8-73-5v-1c-5-7-6-19-9-25v-1c-4-19-10-39-13-57-13-63-26-126-46-187l-15-60c-2-5-8-19-5-28h1v-1c3-3 8-5 13-6h11c17-1 36-1 52-4h1Zm1804-56c6 0 15-1 21 4s10 18 13 25l26 57a1799 1799 0 0 0 146 275c4 5 11 13 14 22l-2 9-5 5-12 4c-21 6-41 6-61 8-10 1-28 4-40-3-11-7-16-19-20-29-6-16-14-30-22-44-34-63-70-123-101-187-12-28-20-56-30-83l-4-16-3-5c-1-2-1-2-3-2-27-4-62-1-89 1h-16c-5 1-9 1-10 4v1h-1l-1 5 1 10 7 49c10 68 23 137 37 205 5 25 9 49 16 73 3 8 10 23 6 35l-1 1c-11 16-50 19-66 20-10 0-23 2-33-4-23-12-29-54-33-75-17-79-31-158-44-236-5-24-7-50-10-74v-1c0-8-4-21 2-31 6-6 16-7 23-9 20-3 38-3 57-4 53-6 108-6 161-7 26 0 52 1 76-3h1Zm-1341-37c40-4 99 7 124 39 7 10 19 28 18 43-2 7-7 11-11 13-5 3-10 4-14 5-20 4-64 13-84 3-10-8-11-19-14-25-3-11-10-20-19-25-11-7-20-9-30-7s-19 8-27 16c-18 16-30 41-35 60-5 21-2 39 7 54 8 16 22 29 41 39 55 32 123 43 164 101 16 23 18 49 9 71-8 21-27 40-50 52-70 37-169 52-248 49-17-1-31-12-41-26s-17-31-22-45l-5-17c-1-7 0-15 4-21l1-1c9-7 21-8 30-10h1c10 0 25-2 39-1 14 0 28 4 37 15 15 18 18 49 35 59 8 7 22 0 32-3 30-10 67-30 79-61 2-4 1-8-1-12l-10-14c-15-23-33-44-56-58-29-16-76-31-113-53-18-11-35-24-46-40a82 82 0 0 1-10-62c1-11 4-22 11-32a189 189 0 0 1 99-87c35-12 71-13 105-19Zm-481-30c11-1 23 2 29 8 4 3 6 9 6 14s-3 11-7 16l-1 1a85 85 0 0 1-49 18c-14 1-38 1-53-10-4-3-7-9-9-14-1-6 0-13 5-18 7-5 18-7 25-8l54-7Z"/>
    <path d="M633 402c18-3 60 0 74 13 9 10 11 29 14 41 10 38 19 76 26 113 4 22 9 45 11 67 0 10 0 20-11 23-33 6-74 0-106-5-8-2-30-3-34-12-4-8 0-24 0-33 1-27 1-54 4-80 3-31 3-64 7-95 2-13-1-29 15-32Zm-79-22c-7 2-24 3-30 9-7 8-7 26-7 35-2 28-5 57-5 86 0 42-3 84-9 126-3 12-11 26-13 40v1c1 10 10 19 10 27 3 31 5 64 5 97 0 46-2 93 2 139v1l1 23c1 9 3 20 9 25 7 3 18 3 24 3 19 0 38-3 57-5l12-2c5-1 10-4 13-9 7-17 2-46 2-64V712l-2-10v-4h1v-1c0-2 5-2 11-2l17 1c33 0 67 0 99 7 17 2 25 16 31 34s8 39 10 55c7 39 14 78 14 118 0 6-4 11-7 18-4 7-8 15-6 23 3 9 10 14 14 20 16 16 34 22 52 24 18 1 37-3 56-5l10-1c4-1 9-4 11-7l-4 6 4-5c9-12 0-47-1-58l-29-181c-16-88-31-175-50-263-4-24-10-47-17-70v-1c-3-6-5-20-12-26-12-7-36-4-46-5-49-7-106-10-154-4-23 4-47 2-73 5Zm2444-14c14-1 44-3 59 7 8 7 10 19 7 29-2 9-8 19-14 23-10 7-22 8-32 10h-1c-18 1-53 6-72-6-8-6-11-18-10-28 2-10 7-20 14-25 15-10 35-7 48-10h1ZM1463 110c23-3 40 7 61 9 51 3 103 1 154 1 16 0 33 2 48 5l11 4c2 1 4 4 4 7 1 2 0 5-2 8-5 8-18 12-31 13h-33c-40 2-80 2-120 5-14 1-31-3-44 0h-1v8l2 38c1 39 4 77 4 116l1 37c0 6-1 12 1 16h1l7-1h1c11-1 24-1 34-3 52-7 103-17 155-21 15-2 32-2 46 1h1v1l9 3 5 4 2 7c0 3-1 6-3 7l-5 4-10 3c-17 3-34 4-50 4-48 0-90 13-136 29-13 4-38 4-46 15-7 6-3 23-2 33 3 24 3 47 6 69 10 100 20 199 37 298l17 80c3 10 8 25 3 37-5 8-14 12-21 13-21 3-48 6-71 3h-13c-5-1-10-4-14-9v-1c-9-17-9-43-12-61l-17-114c-12-82-22-163-30-247-6-67-9-136-15-203l-10-146-2-40c0-3-2-12 1-18l-1 1 5-6 6-2h12l55-7Zm1025-73c7 0 23-1 30 5 7 9 7 26 7 35 4 30 4 61 7 90 14 104 24 210 38 314l13 83c2 10 2 26 6 30l3 1h8c12-2 25-3 37-6 34-6 70-12 105-16 12-1 32-7 46-4h1c9 5 16 23 18 30 12 26 25 50 38 74 37 79 77 157 112 236l27 56h1v1l4 10 1 8c-1 3-4 6-7 8h-1c-10 1-21 0-31-2-18-1-34-1-53-4-7 0-19 1-29-5h-1c-5-7-9-17-12-24l-25-51c-31-62-64-123-92-186l-34-78c-4-10-9-21-19-23-21-4-51 4-70 11-9 3-18 6-19 13-4 7-1 16 0 24 2 17 5 34 6 53l24 210c2 13 6 41-1 53-5 9-19 14-32 16l-36 3c-6 0-15 0-23-4-12-11-15-48-18-62l-27-155c-28-180-48-363-73-543-4-43-5-84-10-127-1-12-6-40 3-53 15-18 58-18 77-21h1ZM487 12c6-1 20-3 32-2l18 2c5 2 10 6 12 10 3 9 0 21-3 28l-23 50c-21 56-43 112-60 169-7 20-7 57-23 76-16 14-55 12-73 11l-21-1-11-3-8-8c-6-17 9-48 13-61 16-57 35-111 57-164l19-49c1-2 3-5 3-8l1-3-1-1h-1v-1c-1-3-5-2-11-1l-18 3c-34 4-68 14-101 23-13 4-32 6-40 15-10 10-12 31-15 45l-18 111c-19 112-30 225-42 339-6 62-8 125-16 187-7 54-12 109-22 162l-9 38-1 7v2c4 5 21-2 29-2 28-1 55-4 83-7l16-2c5-1 8-1 10-5v-1l-1 1c7-18 4-42 5-62l9-119c1-19 2-56 15-72v-1h1c14-11 39-16 56-18 11-1 32-7 45-3 5 3 8 7 9 11v13c-3 15-6 30-6 44-1 56-6 114-11 170l-3 29c-2 12-7 24-16 29-27 9-59 9-86 12-59 5-119 8-177 15-21 3-42 2-61 5H26c-6-1-12-3-16-7-2-2-4-6-4-9v-9l6-39c8-52 15-107 24-160 10-78 14-157 21-237a6728 6728 0 0 1 58-420c2-15 5-42 15-56 9-7 19-11 29-13 22-9 45-13 68-19 86-21 173-33 260-44Zm3516 492c10-1 14 17 17 25 10 27 17 55 27 84 17 51 30 106 37 160 3 14 9 47-1 60-5 6-16 7-23 8l-46 8c-9 2-19 7-27 7-13 0-17-13-20-23-10-26-17-53-26-80-13-47-23-97-28-146-3-16-9-44-3-58 3-8 14-12 21-15 20-10 49-30 72-30Zm-124-9c-26 11-57 23-73 49-13 21-3 52 0 72 7 65 23 127 43 189 4 18 10 33 16 50 1 6 3 15 9 21l-1-1c3 3 7 5 11 5h8l39-1c44-2 91-10 135-16 13-1 36-11 48-7v1l2 6 1 14v1a1070 1070 0 0 1 30 317c-2 39-5 75-24 107-9 15-18 21-30 23-11 2-23-1-36-7-27-12-53-35-68-51-7-7-14-13-21-22-30-35-48-76-55-122-4-26-4-73-22-95-9-8-19-9-28-11h-1c-11-1-30-3-48-1-9 2-18 4-25 8s-12 11-14 19c-8 35 10 79 18 108 31 102 103 194 213 216 35 6 76 3 112-1 20-3 44-6 64-14 68-37 83-120 90-187 7-63-5-128-15-188-18-111-47-221-75-331-13-51-32-100-46-149l-10-40c-1-7-2-15-7-22-13-12-47-10-61-9-64 9-122 44-179 69Z"/>
  </g>
</svg>